<?xml version="1.0" encoding="UTF-8"?>
<svg version="1.1" xmlns="http://www.w3.org/2000/svg" width="512" height="512">
<path d="M0 0 C2.63881653 1.17667162 5.12667026 2.55140388 7.625 4 C8.3272168 4.40299316 9.02943359 4.80598633 9.75292969 5.22119141 C20.98515526 11.79334706 30.64761499 20.02299074 40 29 C40.55397461 29.52674316 41.10794922 30.05348633 41.67871094 30.59619141 C48.63772941 37.24104635 54.85593825 43.80115697 60 52 C62.24385403 55.36578104 62.66047758 55.47143168 66.3671875 56.39453125 C67.24689209 56.62430664 68.12659668 56.85408203 69.03295898 57.09082031 C69.97083252 57.32897461 70.90870605 57.56712891 71.875 57.8125 C89.33460362 62.55937109 104.95115978 71.26747905 117 85 C117.65226562 85.73476562 118.30453125 86.46953125 118.9765625 87.2265625 C130.34075595 100.6968613 139.81203328 118.43157453 140.125 136.375 C141.28751236 141.19112263 143.44954095 142.39356683 147.3984375 145.1640625 C165.50618713 157.94280473 177.59781015 177.41463029 182 199 C183.55560228 208.04608139 184.28827685 216.8259168 184.24050903 225.99679565 C184.24307709 227.83568863 184.24307709 227.83568863 184.24569702 229.71173096 C184.24840579 233.0764598 184.24223121 236.44094984 184.23214546 239.80564961 C184.22333725 243.50407944 184.22633957 247.20250439 184.2277813 250.90094185 C184.22883951 258.06222243 184.21965487 265.22345237 184.20677864 272.38471998 C184.19231699 280.67779018 184.19078577 288.97083044 184.18920898 297.26391602 C184.17872992 319.13428531 184.15080748 341.00464343 184.125 362.875 C184.08375 411.75625 184.0425 460.6375 184 511 C59.92 511 -64.16 511 -192 511 C-192.061875 462.221875 -192.12375 413.44375 -192.1875 363.1875 C-192.21481201 347.80278076 -192.24212402 332.41806152 -192.27026367 316.56713867 C-192.28381348 297.73693848 -192.28381348 297.73693848 -192.28633118 288.9132843 C-192.28911878 282.76908391 -192.30008066 276.62496619 -192.31672668 270.48078918 C-192.33593296 263.38100339 -192.34448228 256.28129634 -192.34033485 249.18148442 C-192.33854116 245.55593879 -192.341221 241.93056875 -192.35764539 238.30505598 C-192.49582943 206.17961521 -188.99968567 177.86037151 -165.921875 153.8046875 C-154.79286859 142.89643429 -154.79286859 142.89643429 -149 140 C-148.45290888 137.38779021 -148.01286667 134.82386911 -147.625 132.1875 C-144.94760185 115.85741509 -138.89000897 101.62299665 -128 89 C-127.20980469 88.05382812 -126.41960937 87.10765625 -125.60546875 86.1328125 C-115.3407241 74.15951675 -101.55448703 63.3185304 -85.93359375 59.796875 C-73.61496647 57.25612885 -73.61496647 57.25612885 -64.9375 48.875 C-64.59098389 48.28557617 -64.24446777 47.69615234 -63.88745117 47.08886719 C-52.33319957 27.58619571 -31.44899493 12.89411056 -12 2 C-10.98808594 1.40058594 -9.97617188 0.80117187 -8.93359375 0.18359375 C-5.29701138 -1.28362923 -3.73943111 -1.13030663 0 0 Z M-31.25 55.17578125 C-37.30412221 61.65710967 -50 75.70604481 -50 85 C-51.28970703 85.05607422 -51.28970703 85.05607422 -52.60546875 85.11328125 C-72.80572415 86.23674147 -89.06520451 91.8924742 -103 107 C-112.04910359 117.88989082 -118.52886961 131.99291926 -117.875 146.390625 C-117.71286619 150.91170162 -117.74672779 154.60903908 -119 159 C-122.56804082 162.70806204 -127.53961587 164.46655898 -132.25195312 166.30029297 C-142.76954219 170.51026647 -149.37241877 181.16458112 -154.375 190.8125 C-154.69654053 191.41489502 -155.01808105 192.01729004 -155.34936523 192.63793945 C-161.71499178 205.59959964 -161.42241665 219.62284962 -161.34057617 233.68310547 C-161.33965546 235.76737005 -161.34006054 237.85163557 -161.34167194 239.93589973 C-161.34234471 245.47946781 -161.3250528 251.02283864 -161.30384064 256.56636047 C-161.28665995 261.78260875 -161.28594609 266.99881087 -161.28381348 272.21508789 C-161.26811868 287.43508436 -161.22623489 302.65504473 -161.1875 317.875 C-161.125625 351.90625 -161.06375 385.9375 -161 421 C-57.38 421 46.24 421 153 421 C153.061875 386.96875 153.12375 352.9375 153.1875 317.875 C153.21481201 307.14339355 153.24212402 296.41178711 153.27026367 285.35498047 C153.28029914 275.70594932 153.28029914 275.70594932 153.28633118 266.05691528 C153.28911762 261.77081612 153.30032614 257.48482928 153.31672668 253.19876099 C153.33741386 247.71924334 153.34345322 242.23988733 153.33921683 236.76033425 C153.34010175 234.75708047 153.34598526 232.75382062 153.35764539 230.75060058 C153.43463331 216.87110962 153.08372644 203.36577226 146.375 190.8125 C145.85123779 189.81271118 145.85123779 189.81271118 145.31689453 188.79272461 C137.30267181 173.99901823 126.0331712 165.91525875 111 159 C110.96261719 157.93523437 110.92523438 156.87046875 110.88671875 155.7734375 C110.04974964 135.77659934 105.93770426 117.98501337 91.5703125 103.33203125 C77.04396261 90.15234905 61.30512928 85.83935345 42 85 C41.75507813 84.14921875 41.51015625 83.2984375 41.2578125 82.421875 C39.88805529 78.69545478 38.04796909 75.54269699 35.875 72.25 C35.47321533 71.63729248 35.07143066 71.02458496 34.6574707 70.39331055 C24.68761889 55.38453028 12.18353514 43.64133567 -3 34 C-11.42258623 34 -25.23001359 49.35437078 -31.25 55.17578125 Z M-161 451 C-161 460.9 -161 470.8 -161 481 C-57.38 481 46.24 481 153 481 C153 471.1 153 461.2 153 451 C49.38 451 -54.24 451 -161 451 Z " fill="#FEFEFE" transform="translate(260,1)"/>
<path d="M0 0 C1.14978637 3.72795947 2.29413142 7.45756767 3.4375 11.1875 C3.76298828 12.24259766 4.08847656 13.29769531 4.42382812 14.38476562 C4.73642578 15.40634766 5.04902344 16.42792969 5.37109375 17.48046875 C5.8031311 18.88655396 5.8031311 18.88655396 6.24389648 20.32104492 C7.67280027 25.38380282 7.67280027 25.38380282 8 28 C6.19140625 30 6.19140625 30 3.5625 32 C-7.7785218 41.59135504 -13.55167371 54.89880428 -14.875 69.5 C-15.54110489 85.83622255 -10.60879552 99.54106204 0 112 C2.51081759 114.57907283 5.12405825 116.83878934 8 119 C8.60199219 119.46019531 9.20398438 119.92039062 9.82421875 120.39453125 C21.26084652 128.33063983 36.69698347 130.46300355 50.24609375 128.5390625 C62.4904009 126.04022431 72.89078239 120.56464482 82 112 C82.5878125 111.07316406 83.175625 110.14632812 83.78125 109.19140625 C86 107 86 107 89.59765625 107 C94.6303283 107.98949824 99.54241958 109.48391958 104.4375 111 C105.34693359 111.27328125 106.25636719 111.5465625 107.19335938 111.828125 C113.85925752 113.85925752 113.85925752 113.85925752 115 115 C117.52339874 142.58133504 107.76491575 171.71853965 92 194 C91.47148437 194.77214844 90.94296875 195.54429687 90.3984375 196.33984375 C82.40535875 207.34569833 71.69787568 218.04221866 60 225 C59.4323291 225.34724121 58.8646582 225.69448242 58.27978516 226.05224609 C28.94798041 243.89746996 -4.68443533 249.4377958 -38.18945312 241.47998047 C-52.64200789 237.67649769 -66.83303571 231.71520796 -79 223 C-79.78117187 222.44183594 -80.56234375 221.88367188 -81.3671875 221.30859375 C-107.72350864 201.30371394 -124.76037385 172.82297563 -129.72998047 140.08251953 C-133.90304546 107.89785009 -126.43871551 74.0787932 -106.50585938 48.04882812 C-88.50397398 25.65190783 -66.04090256 10.0017694 -38 3 C-36.22689453 2.55333984 -36.22689453 2.55333984 -34.41796875 2.09765625 C-22.96349785 -0.4207026 -11.68420078 -0.3150469 0 0 Z M-73.49609375 57.453125 C-85.4980756 69.6610691 -95.00782543 85.98051106 -98 103 C-98.21269531 104.19496094 -98.42539063 105.38992187 -98.64453125 106.62109375 C-102.39815668 130.15489605 -97.54537003 154.20292073 -84 174 C-81.4199157 177.40850595 -78.73032373 180.71145219 -76 184 C-75.37996094 184.82242188 -74.75992188 185.64484375 -74.12109375 186.4921875 C-58.63830988 204.79779936 -33.70270213 212.23272732 -10.77734375 214.2890625 C13.05151331 215.02638297 34.95493418 206.21205208 53 191 C53.81855469 190.38640625 54.63710938 189.7728125 55.48046875 189.140625 C58.38919514 186.66933498 60.65735839 183.90983008 62.9375 180.875 C63.3720752 180.30168945 63.80665039 179.72837891 64.25439453 179.13769531 C73.68641525 167.10828878 73.68641525 167.10828878 78 153 C77.47535156 153.17015625 76.95070313 153.3403125 76.41015625 153.515625 C73.61846058 154.38890085 70.81375011 155.20037304 68 156 C66.74058594 156.35964844 65.48117187 156.71929687 64.18359375 157.08984375 C41.26368164 163.26887107 17.93982229 160.25752567 -2.9375 148.9375 C-22.58553519 136.96651168 -37.16114787 118.63956688 -43.29296875 96.32421875 C-47.57245965 76.20351844 -46.02200142 58.30438717 -39 39 C-38.67 38.01 -38.34 37.02 -38 36 C-49.76425284 36 -65.48201198 49.97833198 -73.49609375 57.453125 Z " fill="#FEFEFE" transform="translate(264,143)"/>
<path d="M0 0 C10.23 0 20.46 0 31 0 C31 10.23 31 20.46 31 31 C20.77 31 10.54 31 0 31 C0 20.77 0 10.54 0 0 Z " fill="#FFFFFF" transform="translate(307,185)"/>
</svg>
